<svg width="37" height="37" viewBox="0 0 37 37" fill="none" xmlns="http://www.w3.org/2000/svg">
<path d="M30.8333 16.9583H6.16667C5.24167 16.9583 4.625 17.575 4.625 18.5C4.625 19.425 5.24167 20.0417 6.16667 20.0417H30.8333C31.7583 20.0417 32.375 19.425 32.375 18.5C32.375 17.575 31.7583 16.9583 30.8333 16.9583ZM6.16667 12.3333H30.8333C31.7583 12.3333 32.375 11.7167 32.375 10.7917C32.375 9.86667 31.7583 9.25 30.8333 9.25H6.16667C5.24167 9.25 4.625 9.86667 4.625 10.7917C4.625 11.7167 5.24167 12.3333 6.16667 12.3333ZM30.8333 24.6667H6.16667C5.24167 24.6667 4.625 25.2833 4.625 26.2083C4.625 27.1333 5.24167 27.75 6.16667 27.75H30.8333C31.7583 27.75 32.375 27.1333 32.375 26.2083C32.375 25.2833 31.7583 24.6667 30.8333 24.6667Z" fill="white"/>
</svg>
